<?xml version="1.0" encoding="utf-8"?>
<!-- Generator: Adobe Illustrator 26.0.1, SVG Export Plug-In . SVG Version: 6.00 Build 0)  -->
<svg version="1.1" id="Layer_1" xmlns="http://www.w3.org/2000/svg" xmlns:xlink="http://www.w3.org/1999/xlink" x="0px" y="0px"
	 viewBox="0 0 100 100" style="enable-background:new 0 0 100 100;" xml:space="preserve">
<style type="text/css">
	.st0{fill:#ACD2DF;}
	.st1{fill:none;}
	.st2{fill:#004D7E;}
</style>
<g>
	<circle class="st0" cx="50" cy="50" r="50"/>
</g>
<path class="st1" d="M1.9,105.7h24v24h-24C1.9,129.7,1.9,105.7,1.9,105.7z"/>
<g>
	<path class="st2" d="M64.4,17.5H24.7c-4,0-7.2,3.2-7.2,7.2v50.6c0,4,3.2,7.2,7.2,7.2h50.6c4,0,7.2-3.2,7.2-7.2V35.6L64.4,17.5z
		 M75.3,75.3H24.7V24.7h36.1v14.4h14.4v36.2H75.3z M31.9,68.1H68v-7.2H31.9V68.1z M50,31.9H31.9v7.2H50V31.9z M31.9,53.6H68v-7.2
		H31.9V53.6z"/>
</g>
</svg>
