<?xml version="1.0" encoding="utf-8"?>
<!-- Generator: Adobe Illustrator 25.4.1, SVG Export Plug-In . SVG Version: 6.00 Build 0)  -->
<svg version="1.1" id="Layer_1" xmlns="http://www.w3.org/2000/svg" xmlns:xlink="http://www.w3.org/1999/xlink" x="0px" y="0px"
	 viewBox="0 0 600 600" style="enable-background:new 0 0 600 600;" xml:space="preserve">
<style type="text/css">
	.st0{fill:none;stroke:#0332FF;stroke-width:6;stroke-linecap:round;}
	.st1{fill:#C4FAE5;}
	.st2{fill:#CCC7FF;}
	.st3{fill:#F8F1CC;}
	.st4{fill:#F7DBCC;}
	.st5{fill:#F2F4FE;}
	.st6{fill:#7EC1D4;}
	.st7{fill:#FF7956;}
	.st8{fill:#0332FF;}
	.st9{fill:#F7C7CB;}
	.st10{fill:#668AED;}
	.st11{opacity:0.8;fill:#EFC255;enable-background:new    ;}
</style>
<path class="st0" d="M-431.7,661.9"/>
<path class="st1" d="M556.7,187.2h-77.6v-63.9h-78V44.2h155.6V187.2z M496.7,169.7h42.5v-108H418.7v44.1h78V169.7z"/>
<path class="st2" d="M33.3,371c-2.2,0-4.5-0.9-6.2-2.6c-3.4-3.4-3.4-9,0-12.4l67.2-67.2c3.4-3.4,9-3.4,12.4,0s3.4,9,0,12.4
	l-67.2,67.2C37.8,370.2,35.6,371,33.3,371z"/>
<path class="st1" d="M21.7,456c-2.2,0-4.5-0.9-6.2-2.6c-3.4-3.4-3.4-9,0-12.4l67.2-67.2c3.4-3.4,9-3.4,12.4,0s3.4,9,0,12.4
	l-67.2,67.2C26.1,455.2,23.9,456,21.7,456z"/>
<path class="st3" d="M108.8,239.6c27.6,0,50-22.4,50-50s-22.4-50-50-50s-50,22.4-50,50C58.8,217.2,81.2,239.6,108.8,239.6z"/>
<path class="st1" d="M320.5,147.1c4.5,0,8.8-1.3,12.5-3.7s6.6-5.8,8.3-9.8c1.7-4,2.2-8.4,1.3-12.6c-0.9-4.2-3-8.1-6.1-11.2
	c-3.2-3.1-7.2-5.1-11.5-6c-4.4-0.9-8.9-0.4-13,1.2c-4.1,1.7-7.6,4.4-10.1,8s-3.8,7.8-3.8,12.1c0,5.8,2.4,11.3,6.6,15.4
	C308.8,144.8,314.5,147.1,320.5,147.1z"/>
<path class="st4" d="M544.9,315.1l-70.1,43.8v-87.6L544.9,315.1z"/>
<g>
	<rect x="131.7" y="96.3" class="st5" width="313.7" height="418.3"/>
	<g>
		<path class="st6" d="M444.9,200.9c-4.8,0-8.8-3.9-8.8-8.8V94.9c0-4.8,3.9-8.8,8.8-8.8c4.8,0,8.8,3.9,8.8,8.8v97.2
			C453.6,197,449.7,200.9,444.9,200.9z"/>
		<rect x="125.9" y="197.8" class="st7" width="17.5" height="205.1"/>
		<path class="st8" d="M297.4,522H134.6c-4.8,0-8.8-3.9-8.8-8.8V403c0-4.8,3.9-8.8,8.8-8.8s8.8,3.9,8.8,8.8v101.5h154
			c4.8,0,8.8,3.9,8.8,8.8C306.2,518.1,302.3,522,297.4,522z"/>
		<path class="st9" d="M444.9,522H297.4c-4.8,0-8.8-3.9-8.8-8.8c0-4.8,3.9-8.8,8.8-8.8h138.7V192.1c0-4.8,3.9-8.8,8.8-8.8
			c4.8,0,8.8,3.9,8.8,8.8v321.1C453.6,518.1,449.7,522,444.9,522z"/>
		<path class="st10" d="M134.6,206.6c-4.8,0-8.8-3.9-8.8-8.8V94.9c0-4.8,3.9-8.8,8.8-8.8h310.3c4.8,0,8.8,3.9,8.8,8.8
			s-3.9,8.8-8.8,8.8H143.4v94.2C143.4,202.7,139.5,206.6,134.6,206.6z"/>
		<rect x="169.5" y="370.3" class="st11" width="240.5" height="76.7"/>
		<rect x="301.9" y="138.4" class="st9" width="107.1" height="76.7"/>
		<path class="st8" d="M256.6,159.5h-80.2c-4.8,0-8.8-3.9-8.8-8.8c0-4.8,3.9-8.8,8.8-8.8h80.2c4.8,0,8.8,3.9,8.8,8.8
			C265.4,155.5,261.5,159.5,256.6,159.5z"/>
		<path class="st8" d="M256.6,208.3h-80.2c-4.8,0-8.8-3.9-8.8-8.8c0-4.8,3.9-8.8,8.8-8.8h80.2c4.8,0,8.8,3.9,8.8,8.8
			C265.4,204.3,261.5,208.3,256.6,208.3z"/>
		<path class="st8" d="M396.1,285H173c-4.8,0-8.8-3.9-8.8-8.8c0-4.8,3.9-8.8,8.8-8.8h223.1c4.8,0,8.8,3.9,8.8,8.8
			C404.8,281,400.9,285,396.1,285z"/>
	</g>
</g>
</svg>
