<svg width="25" height="36" viewBox="0 0 25 36" fill="none" xmlns="http://www.w3.org/2000/svg">
<path d="M18.4428 18.5884V17.5523H24.5406C24.4157 16.0277 23.7585 14.5956 22.684 13.5068C21.6459 12.4626 20.2822 11.8044 18.8189 11.6413C17.3555 11.4782 15.8804 11.82 14.6379 12.61C13.3953 13.4001 12.4601 14.5909 11.987 15.9853C11.5139 17.3796 11.5314 18.8937 12.0367 20.2767C12.5419 21.6597 13.5045 22.8286 14.765 23.5897C16.0254 24.3507 17.5081 24.6583 18.9673 24.4613C20.4264 24.2644 21.7746 23.5748 22.7882 22.5069C23.8018 21.4389 24.4201 20.0567 24.5406 18.5892L18.4428 18.5884Z" fill="#58B3CD"/>
<path d="M6.09137 29.8998H7.12718V35.9977C8.65181 35.8727 10.0839 35.2155 11.1727 34.141C12.2169 33.1029 12.8751 31.7392 13.0382 30.2759C13.2013 28.8125 12.8595 27.3374 12.0695 26.0949C11.2795 24.8524 10.0886 23.9171 8.69427 23.444C7.29993 22.9709 5.78581 22.9885 4.4028 23.4937C3.01979 23.9989 1.85091 24.9615 1.08986 26.222C0.328806 27.4825 0.0212686 28.9651 0.218197 30.4243C0.415126 31.8835 1.10471 33.2316 2.17267 34.2452C3.24063 35.2588 4.62286 35.8771 6.09032 35.9977L6.09137 29.8998Z" fill="#1AB96D"/>
<path d="M7.07045 6.56683L6.34726 5.84364L10.6469 1.54398C9.3776 0.461502 7.73861 -0.0877117 6.07335 0.0114198C4.40809 0.110551 2.84581 0.850334 1.71388 2.07576C0.581949 3.30118 -0.0317915 4.91713 0.00126959 6.58501C0.0343307 8.2529 0.711626 9.84326 1.89123 11.0229C3.07083 12.2025 4.66119 12.8798 6.32907 12.9128C7.99695 12.9459 9.61291 12.3321 10.8383 11.2002C12.0637 10.0683 12.8035 8.50601 12.9027 6.84075C13.0018 5.17549 12.4526 3.53648 11.3701 2.26716L7.07045 6.56683Z" fill="#010A59"/>
</svg>