<?xml version="1.0" encoding="utf-8"?>
<!-- Generator: Adobe Illustrator 26.3.1, SVG Export Plug-In . SVG Version: 6.00 Build 0)  -->
<svg version="1.1" id="Layer_1" xmlns="http://www.w3.org/2000/svg" xmlns:xlink="http://www.w3.org/1999/xlink" x="0px" y="0px"
	 viewBox="0 0 100 100" style="enable-background:new 0 0 100 100;" xml:space="preserve">
<style type="text/css">
	.st0{fill:#ACD2DF;}
	.st1{fill:none;}
	.st2{fill:#004D7E;}
</style>
<g>
	<circle class="st0" cx="50" cy="50" r="50"/>
</g>
<path class="st1" d="M1.9,105.7h24v24h-24C1.9,129.7,1.9,105.7,1.9,105.7z"/>
<path class="st2" d="M50,17.5c-17.9,0-32.5,14.6-32.5,32.5S32.1,82.5,50,82.5S82.5,67.9,82.5,50S67.9,17.5,50,17.5z M24,50
	c0-2,0.3-3.9,0.7-5.8l15.5,15.5V63c0,3.6,2.9,6.5,6.5,6.5v6.3C33.9,74.1,24,63.2,24,50z M69.1,67.6C68.3,64.9,65.9,63,63,63h-3.2
	v-9.8c0-1.8-1.5-3.2-3.2-3.2H37v-6.5h6.5c1.8,0,3.2-1.5,3.2-3.2v-6.5h6.5c3.6,0,6.5-2.9,6.5-6.5v-1.3C69.2,29.8,76,39.1,76,50
	C76,56.8,73.4,62.9,69.1,67.6z"/>
</svg>
