<?xml version="1.0" encoding="utf-8"?>
<!-- Generator: Adobe Illustrator 26.0.1, SVG Export Plug-In . SVG Version: 6.00 Build 0)  -->
<svg version="1.1" id="Layer_1" xmlns="http://www.w3.org/2000/svg" xmlns:xlink="http://www.w3.org/1999/xlink" x="0px" y="0px"
	 viewBox="0 0 100 100" style="enable-background:new 0 0 100 100;" xml:space="preserve">
<style type="text/css">
	.st0{fill:#ACD2DF;}
	.st1{fill:none;}
	.st2{fill:#004D7E;}
</style>
<g>
	<circle class="st0" cx="50" cy="50" r="50"/>
</g>
<path class="st1" d="M1.9,105.7h24v24h-24C1.9,129.7,1.9,105.7,1.9,105.7z"/>
<path class="st2" d="M46.8,69.5h6.5V63h-6.5V69.5z M50,17.5c-17.9,0-32.5,14.6-32.5,32.5S32.1,82.5,50,82.5S82.5,67.9,82.5,50
	S67.9,17.5,50,17.5z M50,76c-14.3,0-26-11.7-26-26s11.7-26,26-26s26,11.7,26,26S64.3,76,50,76z M50,30.5c-7.2,0-13,5.8-13,13h6.5
	c0-3.6,2.9-6.5,6.5-6.5s6.5,2.9,6.5,6.5c0,6.5-9.8,5.7-9.8,16.2h6.5c0-7.3,9.8-8.1,9.8-16.2C63,36.3,57.2,30.5,50,30.5z"/>
</svg>
