<?xml version="1.0" encoding="utf-8"?>
<!-- Generator: Adobe Illustrator 26.0.1, SVG Export Plug-In . SVG Version: 6.00 Build 0)  -->
<svg version="1.1" id="Layer_1" xmlns="http://www.w3.org/2000/svg" xmlns:xlink="http://www.w3.org/1999/xlink" x="0px" y="0px"
	 viewBox="0 0 100 100" style="enable-background:new 0 0 100 100;" xml:space="preserve">
<style type="text/css">
	.st0{fill:#ACD2DF;}
	.st1{fill:none;}
	.st2{fill:#004D7E;}
</style>
<g>
	<circle class="st0" cx="50" cy="50" r="50"/>
</g>
<path class="st1" d="M1.9,105.7h24v24h-24C1.9,129.7,1.9,105.7,1.9,105.7z"/>
<path class="st2" d="M49.4,19.9c0.9,0,1.7,0.7,1.7,1.7v6.7h20v20h6.7c0.9,0,1.7,0.7,1.7,1.7c0,0.9-0.7,1.7-1.7,1.7h-6.7v20H64
	c-2.3-5.8-8-10-14.6-10s-12.3,4.2-14.6,10h-7.1v-7.1c5.8-2.3,10-8,10-14.6s-4.1-12.3-10-14.6v-7.1h20v-6.7
	C47.8,20.6,48.5,19.9,49.4,19.9 M49.4,13.2c-4.6,0-8.3,3.7-8.3,8.3H27.8c-3.7,0-6.6,3-6.6,6.7v12.7h1c5,0,9,4,9,9s-4,9-9,9h-1v12.7
	c0,3.7,3,6.7,6.7,6.7h12.7v-1c0-5,4-9,9-9s9,4,9,9v1h12.7c3.7,0,6.7-3,6.7-6.7V58.2c4.6,0,8.3-3.7,8.3-8.3s-3.7-8.3-8.3-8.3V28.2
	c0-3.7-3-6.7-6.7-6.7H57.8C57.8,17,54,13.2,49.4,13.2z"/>
</svg>
