<?xml version="1.0" encoding="utf-8"?>
<!-- Generator: Adobe Illustrator 26.0.1, SVG Export Plug-In . SVG Version: 6.00 Build 0)  -->
<svg version="1.1" id="Layer_1" xmlns="http://www.w3.org/2000/svg" xmlns:xlink="http://www.w3.org/1999/xlink" x="0px" y="0px"
	 viewBox="0 0 100 100" style="enable-background:new 0 0 100 100;" xml:space="preserve">
<style type="text/css">
	.st0{fill:#ACD2DF;}
	.st1{fill:none;}
	.st2{fill-rule:evenodd;clip-rule:evenodd;fill:#004D7E;}
</style>
<g>
	<circle class="st0" cx="50" cy="50" r="50"/>
</g>
<path class="st1" d="M1.9,105.7h24v24h-24C1.9,129.7,1.9,105.7,1.9,105.7z"/>
<g>
	<path class="st2" d="M79.7,51.9c1.2-1.4,1.9-3.2,1.9-5.2c0-4.4-3.6-7.9-7.9-7.9V26.1c0-3.5-2.9-6.4-6.4-6.4H54.6
		c0-4.4-3.6-7.9-7.9-7.9s-7.9,3.6-7.9,7.9H26c-3.5,0-6.3,2.9-6.3,6.4v12.1h0.9c4.7,0,8.6,3.8,8.6,8.6c0,4.7-3.8,8.6-8.6,8.6h-1v12.1
		c0,3.5,2.9,6.4,6.4,6.4h12.1v-1c0-4.7,3.8-8.6,8.6-8.6c0.1,0,0.3,0,0.4,0c0,0.3,0,0.5,0,0.8c0,10.5,8.5,19,19,19s19-8.5,19-19
		C85,59.9,83,55.3,79.7,51.9z M46.6,57.9c-6.3,0-11.8,4-13.9,9.5H26v-6.7c5.6-2.2,9.5-7.6,9.5-13.9S31.6,35,26,32.9v-6.7h19.1v-6.4
		c0-0.9,0.7-1.6,1.6-1.6c0.9,0,1.6,0.7,1.6,1.6v6.4h19.1v19.1h6.4c0.9,0,1.6,0.7,1.6,1.6c0,0.6-0.3,1.1-0.7,1.3
		c-2.6-1.3-5.5-2-8.5-2C58,46,51.2,51,48.4,58C47.8,57.9,47.2,57.9,46.6,57.9z M66,77.7c-7,0-12.6-5.7-12.6-12.6
		c0-7,5.7-12.6,12.6-12.6S78.6,58.1,78.6,65C78.6,72,73,77.7,66,77.7z"/>
	<circle class="st2" cx="66" cy="60.7" r="3.5"/>
	<path class="st2" d="M66,67c-2.3,0-6.9,1.1-7.1,3.4c1.6,2.2,4.2,3.7,7.1,3.7c2.9,0,5.5-1.5,7.1-3.7C72.9,68.1,68.3,67,66,67z"/>
</g>
</svg>
