<?xml version="1.0" encoding="utf-8"?>
<!-- Generator: Adobe Illustrator 26.0.1, SVG Export Plug-In . SVG Version: 6.00 Build 0)  -->
<svg version="1.1" id="Layer_1" xmlns="http://www.w3.org/2000/svg" xmlns:xlink="http://www.w3.org/1999/xlink" x="0px" y="0px"
	 viewBox="0 0 100 100" style="enable-background:new 0 0 100 100;" xml:space="preserve">
<style type="text/css">
	.st0{fill:#ACD2DF;}
	.st1{fill:none;}
	.st2{fill:#004D7E;}
</style>
<g>
	<circle class="st0" cx="50" cy="50" r="50"/>
</g>
<path class="st1" d="M1.9,105.7h24v24h-24C1.9,129.7,1.9,105.7,1.9,105.7z"/>
<g>
	<g>
		<rect x="56.5" y="44" class="st2" width="13" height="4.9"/>
		<rect x="56.5" y="53.8" class="st2" width="13" height="4.9"/>
		<path class="st2" d="M76,27.8H59.8V18c0-3.6-2.9-6.5-6.5-6.5h-6.5c-3.6,0-6.5,2.9-6.5,6.5v9.8H24c-3.6,0-6.5,2.9-6.5,6.5V70
			c0,3.6,2.9,6.5,6.5,6.5h52c3.6,0,6.5-2.9,6.5-6.5V34.2C82.5,30.7,79.6,27.8,76,27.8z M46.8,27.8V18h6.5v9.8v6.5h-6.5V27.8z M76,70
			H24V34.2h16.2c0,3.6,2.9,6.5,6.5,6.5h6.5c3.6,0,6.5-2.9,6.5-6.5H76V70z"/>
		<circle class="st2" cx="40.2" cy="48.9" r="4.9"/>
		<path class="st2" d="M47,57.6c-2.1-0.9-4.4-1.4-6.8-1.4s-4.7,0.5-6.8,1.4c-1.8,0.8-3,2.5-3,4.5v1.4H50v-1.4
			C50,60.1,48.8,58.4,47,57.6z"/>
	</g>
</g>
</svg>
