<?xml version="1.0" encoding="utf-8"?>
<!-- Generator: Adobe Illustrator 26.0.1, SVG Export Plug-In . SVG Version: 6.00 Build 0)  -->
<svg version="1.1" id="Layer_1" xmlns="http://www.w3.org/2000/svg" xmlns:xlink="http://www.w3.org/1999/xlink" x="0px" y="0px"
	 viewBox="0 0 100 100" style="enable-background:new 0 0 100 100;" xml:space="preserve">
<style type="text/css">
	.st0{fill:#ACD2DF;}
	.st1{fill:none;}
	.st2{fill:#004D7E;}
</style>
<g>
	<circle class="st0" cx="50" cy="50" r="50"/>
</g>
<path class="st1" d="M1.9,105.7h24v24h-24C1.9,129.7,1.9,105.7,1.9,105.7z"/>
<path class="st2" d="M59.8,24v22.8h-32l-1.9,1.9L24,50.6V24H59.8 M63,17.5H20.8c-1.8,0-3.2,1.5-3.2,3.2v45.5l13-13H63
	c1.8,0,3.2-1.5,3.2-3.2V20.8C66.2,19,64.8,17.5,63,17.5z M79.2,30.5h-6.5v29.2H30.5v6.5c0,1.8,1.5,3.2,3.2,3.2h35.8l13,13V33.8
	C82.5,32,81,30.5,79.2,30.5z"/>
</svg>
