<?xml version="1.0" encoding="utf-8"?>
<!-- Generator: Adobe Illustrator 26.0.0, SVG Export Plug-In . SVG Version: 6.00 Build 0)  -->
<svg version="1.1" id="Layer_1" xmlns="http://www.w3.org/2000/svg" xmlns:xlink="http://www.w3.org/1999/xlink" x="0px" y="0px"
	 viewBox="0 0 600 600" style="enable-background:new 0 0 600 600;" xml:space="preserve">
<style type="text/css">
	.st0{fill:none;stroke:#0332FF;stroke-width:6;stroke-linecap:round;}
	.st1{fill:#D6FACC;}
	.st2{fill:#F8F1CC;}
	.st3{fill:#C4FAE5;}
	.st4{fill:#F2F4FE;}
	.st5{fill:#CCC7FF;}
	.st6{fill:#1AB96D;}
	.st7{fill:#0332FF;}
	.st8{fill:#668AED;}
	.st9{fill:#C5EAFF;}
	.st10{fill:#58B3CD;}
	.st11{fill:#F7C7CB;}
</style>
<path class="st0" d="M-431.7,661.9"/>
<path class="st1" d="M27.8,278.4L52.9,107l139.9,118.9L27.8,278.4z"/>
<path class="st2" d="M502.5,144.4l-1-6.3l-6.3,1L436,149.3l-9-51.7l115.8-20L561,182.9l-50.4,8.7L502.5,144.4z"/>
<path class="st3" d="M375.1,477.3c-2.5,11.7-1.6,23.8,2.6,34.7s11.5,20.4,20.9,27.1c9.4,6.8,20.7,10.3,32.2,10.3
	c11.5,0.1,22.9-3.3,32.6-9.9s17.4-15.9,22.1-26.8c4.6-10.9,6.1-23,4.1-34.6c-2-11.6-7.4-22.4-15.4-30.9c-8-8.4-18.3-14.3-29.6-16.6
	c-15.2-3.1-30.8-0.1-43.9,8.7C387.5,448.1,378.4,461.7,375.1,477.3z"/>
<g>
	<polyline class="st4" points="98.2,200.2 291.4,41.8 487.6,199.9 489.8,408.4 297,563.2 104.1,408.4 98.2,203.7 	"/>
	<g>
		<path class="st5" d="M209.7,291.3c-2.2,0-4.4-0.7-6.3-2.2L95.2,202.8c-2.4-1.9-3.8-4.8-3.8-7.9c0-3.1,1.4-6,3.8-7.9l41.1-32.7
			c4.4-3.5,10.7-2.8,14.2,1.6c3.5,4.4,2.8,10.7-1.6,14.2l-31.2,24.8l98.3,78.4c4.4,3.5,5.1,9.8,1.6,14.2
			C215.6,290,212.7,291.3,209.7,291.3z"/>
		<path class="st6" d="M295.2,359.3c-2.2,0-4.4-0.7-6.3-2.2l-85.4-68.1c-4.4-3.5-5.1-9.8-1.6-14.2c3.5-4.4,9.8-5.1,14.2-1.6
			l79.2,63.1l69.5-55.4c4.4-3.5,10.7-2.8,14.2,1.6c3.5,4.4,2.8,10.7-1.6,14.2l-75.8,60.4C299.6,358.6,297.4,359.3,295.2,359.3z"/>
		<path class="st7" d="M376.5,294.4c-2.9,0-5.8-1.3-7.8-3.7c-3.5-4.3-2.9-10.7,1.4-14.2l29.2-23.9c4.3-3.5,10.7-2.9,14.2,1.4
			c3.5,4.3,2.9,10.7-1.4,14.2l-29.2,23.9C381.1,293.6,378.8,294.4,376.5,294.4z"/>
		<path class="st8" d="M295.2,570.3c-2.2,0-4.4-0.7-6.3-2.2L95.2,413.8c-4.4-3.5-5.1-9.8-1.6-14.2c3.5-4.4,9.8-5.1,14.2-1.6
			l187.4,149.3L403,461.4c4.4-3.5,10.7-2.8,14.2,1.6c3.5,4.4,2.8,10.7-1.6,14.2l-114.1,90.9C299.6,569.5,297.4,570.3,295.2,570.3z"
			/>
		<path class="st9" d="M409.3,479.3c-3,0-5.9-1.3-7.9-3.8c-3.5-4.4-2.8-10.7,1.6-14.2l79.6-63.4c4.4-3.5,10.7-2.8,14.2,1.6
			c3.5,4.4,2.8,10.7-1.6,14.2l-79.6,63.4C413.7,478.6,411.5,479.3,409.3,479.3z"/>
		<path class="st5" d="M100.8,416.7c-5.6,0-10.1-4.5-10.1-10.1V195.7c0-5.6,4.5-10.1,10.1-10.1s10.1,4.5,10.1,10.1v210.9
			C110.9,412.2,106.3,416.7,100.8,416.7z"/>
		<path class="st6" d="M296,493.1c-5.6,0-10.1-4.5-10.1-10.1V350c0-5.6,4.5-10.1,10.1-10.1s10.1,4.5,10.1,10.1v133
			C306.1,488.6,301.5,493.1,296,493.1z"/>
		<path class="st9" d="M489.6,374.8c-5.6,0-10.1-4.5-10.1-10.1v-169c0-5.6,4.5-10.1,10.1-10.1s10.1,4.5,10.1,10.1v169
			C499.7,370.3,495.2,374.8,489.6,374.8z"/>
		<path class="st10" d="M142.6,172.3c-3,0-5.9-1.3-7.9-3.8c-3.5-4.4-2.8-10.7,1.6-14.2L288.9,32.7c4.4-3.5,10.7-2.8,14.2,1.6
			c3.5,4.4,2.8,10.7-1.6,14.2L148.9,170.1C147,171.6,144.8,172.3,142.6,172.3z"/>
		<path class="st10" d="M209.7,165.7c-2.2,0-4.4-0.7-6.3-2.2l-27.9-22.2c-4.4-3.5-5.1-9.8-1.6-14.2c3.5-4.4,9.8-5.1,14.2-1.6
			l27.9,22.2c4.4,3.5,5.1,9.8,1.6,14.2C215.6,164.4,212.7,165.7,209.7,165.7z"/>
		<path class="st11" d="M413.3,265.2c-3,0-5.9-1.3-7.9-3.8c-3.5-4.4-2.8-10.7,1.6-14.2l65.7-52.3L288.9,48.5
			c-4.4-3.5-5.1-9.8-1.6-14.2c3.5-4.4,9.8-5.1,14.2-1.6L495.2,187c2.4,1.9,3.8,4.8,3.8,7.9c0,3.1-1.4,6-3.8,7.9L419.6,263
			C417.7,264.5,415.5,265.2,413.3,265.2z"/>
		<path class="st8" d="M296,571c-5.6,0-10.1-4.5-10.1-10.1V483c0-5.6,4.5-10.1,10.1-10.1s10.1,4.5,10.1,10.1v77.9
			C306.1,566.5,301.5,571,296,571z"/>
		<path class="st9" d="M489.6,416.7c-5.6,0-10.1-4.5-10.1-10.1v-41.9c0-5.6,4.5-10.1,10.1-10.1s10.1,4.5,10.1,10.1v41.9
			C499.7,412.2,495.2,416.7,489.6,416.7z"/>
		<path class="st7" d="M373.1,353.5c-1.5,0-2.9-0.3-4.3-1c-3.5-1.7-5.8-5.2-5.8-9.1v-53.1L203.5,163.5c-4.4-3.5-5.1-9.8-1.6-14.2
			c3.5-4.4,9.8-5.1,14.2-1.6l163.4,129.8c2.4,1.9,3.8,4.8,3.8,7.9V322l16-13.2L399,263L298.5,182c-4.3-3.5-5-9.9-1.5-14.2
			c3.5-4.3,9.9-5,14.2-1.5l104.3,84.1c2.4,1.9,3.7,4.8,3.8,7.8l0.2,55.3c0,3-1.3,5.9-3.7,7.8l-36.2,29.9
			C377.7,352.7,375.4,353.5,373.1,353.5z"/>
		<path class="st10" d="M304.8,184.2c-2.2,0-4.4-0.7-6.3-2.2l-86.8-69c-4.4-3.5-5.1-9.8-1.6-14.2c3.5-4.4,9.8-5.1,14.2-1.6l86.8,69
			c4.4,3.5,5.1,9.8,1.6,14.2C310.8,182.9,307.8,184.2,304.8,184.2z"/>
	</g>
</g>
</svg>
