<?xml version="1.0" encoding="utf-8"?>
<!-- Generator: Adobe Illustrator 26.0.1, SVG Export Plug-In . SVG Version: 6.00 Build 0)  -->
<svg version="1.1" id="Layer_1" xmlns="http://www.w3.org/2000/svg" xmlns:xlink="http://www.w3.org/1999/xlink" x="0px" y="0px"
	 viewBox="0 0 100 100" style="enable-background:new 0 0 100 100;" xml:space="preserve">
<style type="text/css">
	.st0{fill:#ACD2DF;}
	.st1{fill:none;}
	.st2{fill:#004D7E;}
</style>
<g>
	<circle class="st0" cx="50" cy="50" r="50"/>
</g>
<path class="st1" d="M1.9,105.7h24v24h-24C1.9,129.7,1.9,105.7,1.9,105.7z"/>
<g>
	<g>
		<path class="st2" d="M26.8,27.5h6.5v9.8h32.5v-9.8h6.5v16.2h6.5V27.5c0-3.6-2.9-6.5-6.5-6.5H58.7c-1.4-3.8-4.9-6.5-9.2-6.5
			s-7.8,2.7-9.2,6.5H26.8c-3.6,0-6.5,2.9-6.5,6.5V73c0,3.6,2.9,6.5,6.5,6.5h19.5V73H26.8V27.5z M49.6,21c1.8,0,3.2,1.5,3.2,3.2
			s-1.5,3.2-3.2,3.2s-3.2-1.5-3.2-3.2S47.8,21,49.6,21z"/>
		<polygon class="st2" points="78.8,48.6 61,66.5 51.2,56.8 46.3,61.6 61,76.2 83.7,53.5 		"/>
	</g>
</g>
</svg>
