<?xml version="1.0" encoding="utf-8"?>
<!-- Generator: Adobe Illustrator 26.0.1, SVG Export Plug-In . SVG Version: 6.00 Build 0)  -->
<svg version="1.1" id="Layer_1" xmlns="http://www.w3.org/2000/svg" xmlns:xlink="http://www.w3.org/1999/xlink" x="0px" y="0px"
	 viewBox="0 0 100 100" style="enable-background:new 0 0 100 100;" xml:space="preserve">
<style type="text/css">
	.st0{fill:#ACD2DF;}
	.st1{fill:none;}
	.st2{fill:#004D7E;}
</style>
<g>
	<circle class="st0" cx="50" cy="50" r="50"/>
</g>
<path class="st1" d="M1.9,105.7h24v24h-24C1.9,129.7,1.9,105.7,1.9,105.7z"/>
<g>
	<path class="st2" d="M59.8,45.1c0-1.8,1.5-3.2,3.2-3.2c1.8,0,3.2,1.5,3.2,3.2s-1.5,3.2-3.2,3.2S59.8,46.9,59.8,45.1z M37,41.9h16.2
		v-6.5H37V41.9z M82.5,37v22.7l-9.2,3.1L67.8,81H50v-6.5h-6.5V81H25.6c0,0-8.1-27.5-8.1-37.4s8-17.9,17.9-17.9h16.2
		c3-3.9,7.7-6.5,13-6.5c2.7,0,4.9,2.2,4.9,4.9c0,0.7-0.1,1.3-0.4,1.9c-0.5,1.1-0.8,2.4-1,3.7l7.4,7.4L82.5,37L82.5,37z M76,43.5
		h-3.2L61.4,32.1c0-2.1,0.3-4.2,0.8-6.2c-3.2,0.8-5.7,3.2-6.8,6.2h-20c-6.3,0-11.4,5.1-11.4,11.4c0,6.1,4,21.6,6.5,30.9H37v-6.5
		h19.5v6.5H63l5-16.7l8-2.7V43.5z"/>
</g>
</svg>
