<svg width="128" height="42" viewBox="0 0 128 42" fill="none" xmlns="http://www.w3.org/2000/svg">
<path d="M66.3364 28.4461C65.9033 25.9033 64.6486 23.857 62.4381 22.5632C61.5559 22.0703 60.5846 21.7604 59.5815 21.6519C58.5785 21.5434 57.564 21.6384 56.598 21.9315C52.3562 23.1652 50.266 27.6038 51.4151 31.606C51.6906 32.5867 52.1568 33.5024 52.7865 34.3002C53.4162 35.0979 54.1969 35.7617 55.0834 36.253C55.9698 36.7443 56.9443 37.0533 57.9503 37.1622C58.9562 37.2711 59.9737 37.1775 60.9435 36.8871C62.3651 36.4839 63.6313 35.6548 64.5742 34.5097C65.59 33.259 66.2231 31.7379 66.3965 30.1314L62.9463 31.1395C62.6177 32.4641 61.7513 33.5468 60.1233 34.0284C58.2114 34.5851 55.8665 33.923 55.0749 31.7114L66.3364 28.4461ZM54.3725 29.1231C54.1037 27.7239 54.955 25.5271 57.4346 24.8048C59.8543 24.0675 61.8109 25.5271 62.3038 26.8209L54.3725 29.1231Z" fill="black"/>
<path d="M91.6577 28.4452C91.2207 25.9027 89.9548 23.8567 87.7244 22.5631C86.8343 22.0702 85.8543 21.7604 84.8422 21.6519C83.8302 21.5434 82.8066 21.6384 81.8319 21.9314C77.552 23.165 75.4431 27.603 76.6025 31.6046C76.8814 32.5863 77.353 33.5028 77.9897 34.3011C78.6264 35.0993 79.4156 35.7633 80.3116 36.2546C81.2075 36.7459 82.1923 37.0546 83.2087 37.1628C84.2251 37.271 85.2529 37.1766 86.2325 36.885C87.6664 36.4817 88.9435 35.6528 89.8946 34.5082C90.9195 33.2576 91.5583 31.7367 91.7333 30.1304L88.252 31.1384C87.9206 32.4628 87.0463 33.5454 85.4038 34.0269C83.4747 34.5836 81.1088 33.9215 80.31 31.7102L91.6577 28.4452ZM79.5865 29.122C79.3152 27.723 80.1741 25.5265 82.6758 24.8044C85.1172 24.0672 87.0914 25.5265 87.5887 26.8202L79.5865 29.122Z" fill="black"/>
<path d="M91.5815 36.8265H95.8005L99.1068 31.807L102.383 36.8265H106.647L101.201 29.125L106.093 22.2178H101.949L99.1068 26.7129L96.2641 22.2178H92.0604L96.9674 29.1252L91.5815 36.8265Z" fill="black"/>
<path d="M42.6573 29.4506C42.6573 33.2288 39.9125 37.1872 34.8279 37.1872C33.3091 37.2123 31.8151 36.8012 30.5231 36.0028V41.9998H27.0135V30.1104C26.9984 29.8856 26.9834 29.6606 26.9834 29.4358V29.4058C26.9834 25.6577 29.7282 21.6846 34.8128 21.6846C39.9119 21.6996 42.6573 25.6875 42.6573 29.4506ZM39.1475 29.4206C39.1475 26.8417 37.2127 24.9378 34.8128 24.9378C32.4729 24.9378 30.583 26.752 30.493 29.2256H30.5081V29.9603C30.6049 31.0343 31.1004 32.0331 31.8971 32.7602C32.6939 33.4872 33.734 33.8897 34.8128 33.8885C37.2127 33.9036 39.1475 32.0001 39.1475 29.4212" fill="black"/>
<path d="M48.2469 17.0439H45.0161V36.7505H48.5161V33.6334V17.0439H48.2469Z" fill="black"/>
<path d="M20.2391 22.0644H23.743V36.7503H20.2391V22.0644ZM21.9236 19.9407C22.3074 19.9407 22.6825 19.8267 23.0015 19.6132C23.3206 19.3997 23.5693 19.0963 23.7161 18.7412C23.863 18.3862 23.9014 17.9955 23.8266 17.6186C23.7517 17.2417 23.5669 16.8955 23.2956 16.6238C23.0242 16.352 22.6785 16.167 22.3021 16.092C21.9258 16.0171 21.5357 16.0555 21.1811 16.2026C20.8266 16.3497 20.5236 16.5987 20.3104 16.9182C20.0972 17.2377 19.9834 17.6134 19.9834 17.9977C19.9847 18.5126 20.1895 19.0061 20.5531 19.3702C20.9167 19.7343 21.4094 19.9394 21.9236 19.9407Z" fill="black"/>
<path d="M12.3439 29.307C12.4336 26.7919 14.3479 24.9642 16.7112 24.9642C16.992 24.9661 17.2721 24.9912 17.5488 25.039V21.7294C17.2706 21.6991 16.991 21.6842 16.7112 21.6846C11.5658 21.6846 8.79883 25.713 8.79883 29.4867V29.5168C8.79883 29.7413 8.81382 29.966 8.82881 30.1906V36.7498H12.3585L12.3439 29.307Z" fill="black"/>
<path d="M7.96174 21.5441H4.31734V17.0439H0.80957V36.6744H4.31734V25.0426H7.96174V21.5441Z" fill="black"/>
<path d="M75.7553 21.5441H72.1497V17.0439H68.6792V36.6744H72.1497V25.0426H75.7553V21.5441Z" fill="black"/>
<path d="M123.196 12.1764V11.499H127.19C127.108 10.5022 126.678 9.56591 125.974 8.85404C125.294 8.17134 124.401 7.74102 123.443 7.63439C122.484 7.52776 121.518 7.75122 120.704 8.26774C119.891 8.78426 119.278 9.56284 118.968 10.4745C118.659 11.3861 118.67 12.376 119.001 13.2802C119.332 14.1844 119.962 14.9486 120.788 15.4462C121.613 15.9438 122.584 16.1449 123.54 16.0161C124.495 15.8874 125.378 15.4365 126.042 14.7383C126.706 14.04 127.111 13.1363 127.19 12.1769L123.196 12.1764Z" fill="#58B3CD"/>
<path d="M115.09 19.6339H115.767V23.6633C116.764 23.5808 117.7 23.1465 118.412 22.4365C119.095 21.7505 119.525 20.8494 119.632 19.8824C119.738 18.9154 119.515 17.9406 118.998 17.1196C118.482 16.2985 117.703 15.6805 116.792 15.3679C115.88 15.0553 114.89 15.0669 113.986 15.4007C113.082 15.7346 112.317 16.3707 111.82 17.2036C111.322 18.0365 111.121 19.0162 111.25 19.9805C111.379 20.9447 111.829 21.8355 112.528 22.5053C113.226 23.1751 114.13 23.5837 115.089 23.6633L115.09 19.6339Z" fill="#1AB96D"/>
<path d="M115.725 4.29462L115.248 3.82167L118.085 1.00974C117.248 0.301817 116.166 -0.0573623 115.067 0.0074684C113.968 0.0722991 112.937 0.556108 112.191 1.35752C111.444 2.15893 111.039 3.21574 111.06 4.30652C111.082 5.39729 111.529 6.43737 112.308 7.20881C113.086 7.98026 114.135 8.4232 115.236 8.44482C116.337 8.46644 117.403 8.06507 118.212 7.3248C119.02 6.58453 119.508 5.56283 119.574 4.47376C119.639 3.3847 119.277 2.31281 118.562 1.4827L115.725 4.29462Z" fill="#010A59"/>
</svg>