<?xml version="1.0" encoding="utf-8"?>
<!-- Generator: Adobe Illustrator 25.4.1, SVG Export Plug-In . SVG Version: 6.00 Build 0)  -->
<svg version="1.1" id="Layer_1" xmlns="http://www.w3.org/2000/svg" xmlns:xlink="http://www.w3.org/1999/xlink" x="0px" y="0px"
	 viewBox="0 0 600 600" style="enable-background:new 0 0 600 600;" xml:space="preserve">
<style type="text/css">
	.st0{fill:none;stroke:#0332FF;stroke-width:6;stroke-linecap:round;}
	.st1{fill:#F7DBCC;}
	.st2{fill:#F8F1CC;}
	.st3{fill:#C5EAFF;}
	.st4{fill:#CCC7FF;}
	.st5{fill:#F2F4FE;}
	.st6{fill:#668AED;}
	.st7{fill:#1AB96D;}
	.st8{fill:#58B3CD;}
</style>
<path class="st0" d="M-431.7,661.9"/>
<path class="st1" d="M587.7,179l-37.4,162L425.8,216.3L587.7,179z"/>
<path class="st2" d="M111.7,447.4l-0.6,6.1l6.1,0.6l57.4,5.2l-4.5,50.2L57.8,499.4L67,397.2l48.9,4.4L111.7,447.4z"/>
<path class="st3" d="M324,106.3c3.3-11,3.4-22.6,0.2-33.4c-3.2-10.8-9.4-20.4-17.9-27.6s-19-11.5-30-12.4c-11-1-22.2,1.4-32,6.9
	c-9.8,5.5-17.9,13.8-23.2,23.9c-5.3,10.1-7.6,21.5-6.6,32.8c1,11.3,5.3,22,12.3,30.8c7,8.7,16.4,15.1,27,18.2
	c14.3,4.2,29.5,2.5,42.7-4.9C309.8,133.2,319.6,120.9,324,106.3z"/>
<g>
	<path class="st4" d="M319.9,400.1c-127.9,0-144.4-80-151.5-114.8c-0.7-3.4-1.3-6.4-2-9l-0.2-1.2l-3-19.9l23.2-3.5l2.9,19.4
		c0.7,2.7,1.3,5.9,2.1,9.5c7.2,34.9,20.4,99.8,138.6,95.8c30.9-1.1,59.2-8.1,84-21c40.3-20.9,62.3-52.5,69.5-75.1
		c7-21.9,3.7-49.6,1.5-68c-0.4-3.5-0.8-6.7-1.1-9.5l23.4-2.3c0.3,2.7,0.6,5.7,1,9.1c2.4,20.4,6.1,51.1-2.4,77.9
		c-11.1,35.1-41.4,68.3-81.1,88.8c-27.9,14.5-59.6,22.5-94,23.7C327.1,400.1,323.4,400.1,319.9,400.1z"/>
	<path class="st4" d="M317.2,354.3c-44.2,0-86.1-12.6-115.6-36.4c-26.2-21.2-40.7-49.6-40.7-80c-0.1-39.4,23.6-77.9,64.9-105.6l0,0
		c50.9-34.1,119.6-45.9,179.4-30.7c24.2,6.1,45,16.3,62,30.2c27.5,22.2,41.9,52.2,40.5,84.4c-1.7,37.9-25.3,74.8-64.7,101.2
		c-15.4,10.3-32.7,18.7-51.4,25C367.2,350.4,341.8,354.3,317.2,354.3z M238.8,151.8c-34.6,23.2-54.5,54.6-54.4,86.1
		c0,23.5,11.1,44.8,32,61.7c39.9,32.3,107.3,40.5,167.7,20.4c16.7-5.6,32.1-13,45.7-22.2c33.1-22.2,52.9-52.3,54.3-82.7
		c1.1-24.5-10.2-47.7-31.8-65.1c-14.4-11.7-32.2-20.3-53-25.6C346.7,111,283.7,121.8,238.8,151.8L238.8,151.8z"/>
</g>
<g>
	<g>
		<path class="st5" d="M474,250.9l9.8,17.6c11.7,27.4,63.9,101.7-50.9,184c-28.5,20.4-57.2,31.8-84.2,36.6
			c-45.3,8.2-85.4-2.2-109.6-19c-24.7-17.1-41.1-48.9-50.9-64.6"/>
		<path class="st6" d="M317.1,503.7c-32,0-62.3-8.3-84.7-23.9c-23.1-16-38.9-42.6-49.4-60.2c-1.7-2.9-3.3-5.5-4.7-7.8l19.9-12.4
			c1.5,2.4,3.2,5.2,5,8.2c9.5,15.9,23.8,39.9,42.7,53c19.5,13.5,56.2,25.1,100.8,17.1c27.5-4.9,54.3-16.6,79.4-34.6
			c96-68.9,67-128.5,51.3-160.5c-1.6-3.3-3-6.2-4.1-8.8l-9.5-17.1l20.5-11.4l10.3,18.7c1,2.4,2.4,5.2,3.9,8.3
			c16,32.7,53.4,109.4-58.8,189.9c-28,20.1-58,33.1-89,38.6C339.5,502.7,328.2,503.7,317.1,503.7z"/>
	</g>
	<g>
		<path class="st5" d="M360.5,197.6c-59.3,3.9-117.8,36.6-152.4,80.7c-13.8,17.6-23.8,37-28.5,57.2
			c-16.8,70.5,37.2,123.3,120.2,117.8c17.9-1.2,35.7-5,52.9-11c62.1-21.6,114.8-71.6,128-126.9c7.3-30.5,1.4-57.7-14.4-78.3
			C445.5,210.2,407.8,194.5,360.5,197.6z"/>
		<path class="st6" d="M288.2,465.4c-42.1,0-78.3-14.7-100.6-41.1c-20.8-24.6-27.7-57.1-19.4-91.6c5-21.3,15.3-42.1,30.7-61.7
			c38-48.5,99.7-81.1,160.8-85.1h0c49.6-3.3,91.8,12.8,115.8,44.1c18.5,24.1,24.4,55.4,16.6,88.2c-13.7,57.4-68.2,111.8-135.6,135.2
			c-18.6,6.5-37.5,10.4-55.9,11.6C296.4,465.3,292.3,465.4,288.2,465.4z M361.3,209.4L361.3,209.4c-53.9,3.6-110.4,33.5-143.9,76.2
			c-13.3,16.9-22.1,34.6-26.3,52.6c-6.5,27.1-1.3,52.3,14.5,71.1c19.6,23.2,53.6,35,93.5,32.4c16.4-1.1,33.1-4.5,49.8-10.3
			c60.1-20.9,108.5-68.5,120.5-118.5c6.2-26.1,2-49.8-12.3-68.4C437.8,219.4,402.9,206.6,361.3,209.4z"/>
	</g>
</g>
<g>
	<g>
		<path class="st5" d="M83,153l-9.8,17.6c-11.7,27.4-63.9,101.7,50.9,184c28.5,20.4,57.2,31.8,84.2,36.6c45.3,8.2,85.4-2.2,109.6-19
			c24.7-17.1,41.1-48.9,50.9-64.6"/>
		<path class="st7" d="M239.9,405.8c-11.1,0-22.4-1-33.7-3c-31-5.5-60.9-18.5-88.9-38.6C5.1,283.7,42.5,207,58.5,174.3
			c1.5-3.1,2.9-5.9,3.9-8.3l0.5-1.1l9.8-17.6l20.5,11.4l-9.5,17.1c-1.1,2.6-2.6,5.5-4.1,8.8c-15.6,32-44.7,91.6,51.3,160.5
			c25.2,18,51.9,29.7,79.4,34.6c44.6,8.1,81.4-3.5,100.9-17.1c18.9-13.1,33.2-37.1,42.7-53c1.8-3,3.5-5.8,5-8.2l19.9,12.4
			c-1.4,2.3-3,4.9-4.7,7.8c-10.5,17.6-26.4,44.2-49.4,60.2C302.2,397.5,272,405.8,239.9,405.8z"/>
	</g>
	<g>
		<path class="st5" d="M196.6,99.8c59.3,3.9,117.8,36.6,152.4,80.7c13.8,17.6,23.8,37,28.5,57.2c16.8,70.5-37.2,123.3-120.2,117.8
			c-17.9-1.2-35.7-5-52.9-11c-62.1-21.6-114.8-71.6-128-126.9c-7.3-30.5-1.4-57.7,14.4-78.3C111.5,112.3,149.3,96.7,196.6,99.8z"/>
		<path class="st7" d="M268.8,367.6c-4.1,0-8.2-0.1-12.3-0.4c-18.5-1.2-37.3-5.1-55.9-11.6c-67.4-23.4-121.9-77.8-135.6-135.2
			c-7.8-32.8-1.9-64.1,16.6-88.2c24-31.3,66.2-47.4,115.8-44.1h0c61.2,4,122.8,36.7,160.8,85.1c15.4,19.6,25.7,40.4,30.7,61.7
			c8.2,34.4,1.3,67-19.5,91.6C347.1,352.9,310.9,367.6,268.8,367.6z M184.9,111.1c-36.8,0-67.3,12.6-84.7,35.3
			c-14.3,18.6-18.6,42.3-12.3,68.4c11.9,50,60.3,97.6,120.5,118.5c16.6,5.8,33.4,9.3,49.8,10.3c39.7,2.6,73.9-9.2,93.5-32.4
			c15.8-18.8,21-44,14.5-71c-4.2-18.1-13.1-35.7-26.3-52.6c-33.5-42.7-90-72.6-143.9-76.2C192.1,111.2,188.4,111.1,184.9,111.1z"/>
	</g>
	<g>
		<path class="st8" d="M286.5,205.9c0.8,0,2,0.4,2.3,0.8c0.8,0.8,1.2,1.2,1.2,2l2,7.8c0,0.8,0,1.2-0.4,2c-0.4,0.4-1.2,0.8-2,0.8
			l-10.2-0.8c-3.9-0.4-7,0.4-9,2.3c-2,2-2.3,4.3-1.6,7.8l7,30.5c0,0.8,0,1.2-0.4,2c-0.4,0.4-1.2,0.8-2.3,0.8l-11.4-0.8
			c-0.8,0-1.6-0.4-2.3-0.8c-0.8-0.4-1.2-1.2-1.2-2l-12.1-52.5c-0.4-0.8,0-1.6,0.4-2c0.4-0.4,1.2-0.8,2-0.8l10.6,0.8
			c0.8,0,1.6,0.4,2.3,0.8c0.8,0.8,1.2,1.2,1.6,2l1.2,4.3c1.6-2.3,3.5-3.9,6.3-5.1c2.7-1.2,6.3-1.6,10.6-1.2L286.5,205.9z"/>
		<path class="st8" d="M225.4,182.4c0.8,0,1.2,0.4,2,0.8c0.8,0.4,1.2,1.2,1.2,1.6c0,0.4,0,0.8,0,1.2l-27.8,30.9l47,39.2
			c0.4,0.4,0.8,0.8,1.2,1.6c0,0.8,0,1.2-0.4,1.6c-0.4,0.4-1.2,0.4-1.6,0.4l-13.3-0.8c-1.6,0-2.7-0.4-3.5-1.2c-0.8-0.8-1.6-1.2-2-1.2
			L189.8,225l6.7,28.6c0,0.8,0,1.2-0.4,2c-0.4,0.4-1.2,0.8-2.3,0.8l-11.4-0.8c-0.8,0-1.6-0.4-2.3-0.8c-0.8-0.4-1.2-1.2-1.2-2
			l-17.2-72c0-0.8,0-1.6,0.4-2c0.4-0.4,1.2-0.8,2-0.8l11.4,0.8c0.8,0,2,0.4,2.7,0.8c0.8,0.4,1.2,1.2,1.6,2l6.3,25.8l23.1-24.7
			c0.4-0.4,0.8-0.8,1.6-1.2c0.8-0.4,2-0.8,3.1-0.4L225.4,182.4z"/>
	</g>
</g>
</svg>
