<?xml version="1.0" encoding="utf-8"?>
<!-- Generator: Adobe Illustrator 26.0.1, SVG Export Plug-In . SVG Version: 6.00 Build 0)  -->
<svg version="1.1" id="Layer_1" xmlns="http://www.w3.org/2000/svg" xmlns:xlink="http://www.w3.org/1999/xlink" x="0px" y="0px"
	 viewBox="0 0 100 100" style="enable-background:new 0 0 100 100;" xml:space="preserve">
<style type="text/css">
	.st0{fill:#ACD2DF;}
	.st1{fill:none;}
	.st2{fill:#004D7E;}
</style>
<g>
	<circle class="st0" cx="50" cy="50" r="50"/>
</g>
<path class="st1" d="M1.9,105.7h24v24h-24C1.9,129.7,1.9,105.7,1.9,105.7z"/>
<g>
	<path class="st2" d="M68.1,46.4V17.5H31.9v14.4H17.5v50.6h28.9V68.1h7.2v14.4h28.9V46.4H68.1z M31.9,75.3h-7.2v-7.2h7.2
		C31.9,68.1,31.9,75.3,31.9,75.3z M31.9,60.8h-7.2v-7.2h7.2C31.9,53.6,31.9,60.8,31.9,60.8z M31.9,46.4h-7.2v-7.2h7.2
		C31.9,39.2,31.9,46.4,31.9,46.4z M46.4,60.8h-7.2v-7.2h7.2V60.8z M46.4,46.4h-7.2v-7.2h7.2V46.4z M46.4,31.9h-7.2v-7.2h7.2V31.9z
		 M60.8,60.8h-7.2v-7.2h7.2V60.8z M60.8,46.4h-7.2v-7.2h7.2V46.4z M60.8,31.9h-7.2v-7.2h7.2V31.9z M75.3,75.3h-7.2v-7.2h7.2V75.3z
		 M75.3,60.8h-7.2v-7.2h7.2V60.8z"/>
</g>
</svg>
