<?xml version="1.0" encoding="utf-8"?>
<!-- Generator: Adobe Illustrator 26.0.1, SVG Export Plug-In . SVG Version: 6.00 Build 0)  -->
<svg version="1.1" id="Layer_1" xmlns="http://www.w3.org/2000/svg" xmlns:xlink="http://www.w3.org/1999/xlink" x="0px" y="0px"
	 viewBox="0 0 100 100" style="enable-background:new 0 0 100 100;" xml:space="preserve">
<style type="text/css">
	.st0{fill:#ACD2DF;}
	.st1{fill:none;}
	.st2{fill:#004D7E;}
</style>
<g>
	<circle class="st0" cx="50" cy="50" r="50"/>
</g>
<path class="st1" d="M1.9,105.7h24v24h-24C1.9,129.7,1.9,105.7,1.9,105.7z"/>
<path class="st2" d="M50,85c3.9,0,7.2-3.2,7.2-7.2H42.8C42.8,81.8,46.1,85,50,85z M71.5,63.5v-18c0-11-5.9-20.2-16.2-22.7v-2.4
	c0-3-2.4-5.4-5.4-5.4s-5.4,2.4-5.4,5.4v2.4c-10.3,2.4-16.2,11.6-16.2,22.7v17.9l-7.2,7.2v3.6h57.4v-3.6L71.5,63.5z M64.4,67.1H35.6
	V45.5c0-8.9,5.4-16.2,14.4-16.2s14.4,7.3,14.4,16.2V67.1z"/>
</svg>
