<?xml version="1.0" encoding="utf-8"?>
<!-- Generator: Adobe Illustrator 26.0.1, SVG Export Plug-In . SVG Version: 6.00 Build 0)  -->
<svg version="1.1" id="Layer_1" xmlns="http://www.w3.org/2000/svg" xmlns:xlink="http://www.w3.org/1999/xlink" x="0px" y="0px"
	 viewBox="0 0 100 100" style="enable-background:new 0 0 100 100;" xml:space="preserve">
<style type="text/css">
	.st0{fill:#ACD2DF;}
	.st1{fill:none;}
	.st2{fill:#004D7E;}
</style>
<g>
	<circle class="st0" cx="50" cy="50" r="50"/>
</g>
<path class="st1" d="M1.9,105.7h24v24h-24C1.9,129.7,1.9,105.7,1.9,105.7z"/>
<path class="st2" d="M39.5,81.5c0,1.9,1.6,3.5,3.5,3.5h14c1.9,0,3.5-1.6,3.5-3.5V78h-21V81.5z M50,15c-13.5,0-24.5,11-24.5,24.5
	c0,8.3,4.2,15.6,10.5,20.1v7.9c0,1.9,1.6,3.5,3.5,3.5h21c1.9,0,3.5-1.6,3.5-3.5v-7.9c6.3-4.4,10.5-11.8,10.5-20.1
	C74.5,26,63.5,15,50,15z M60,53.9L57,56v8H43v-8l-3-2.1c-4.7-3.3-7.5-8.6-7.5-14.3C32.5,29.8,40.3,22,50,22s17.5,7.8,17.5,17.5
	C67.5,45.2,64.7,50.6,60,53.9z"/>
</svg>
