<?xml version="1.0" encoding="utf-8"?>
<!-- Generator: Adobe Illustrator 26.0.1, SVG Export Plug-In . SVG Version: 6.00 Build 0)  -->
<svg version="1.1" id="Layer_1" xmlns="http://www.w3.org/2000/svg" xmlns:xlink="http://www.w3.org/1999/xlink" x="0px" y="0px"
	 viewBox="0 0 600 600" style="enable-background:new 0 0 600 600;" xml:space="preserve">
<style type="text/css">
	.st0{fill:#F7C7CB;}
	.st1{fill:#668AED;}
	.st2{fill:#C4FAE5;}
	.st3{fill:#0332FF;}
	.st4{fill:#F2F4FE;}
	.st5{fill:#1AB96D;}
</style>
<path class="st0" d="M109.4,145C120.9,213.7,79.3,274,15,287c0.2,0.2,18.2,88.4,18.4,88.9c139.6-28.8,192.8-150,171.8-252.4
	C205.1,123.7,109.2,145,109.4,145z"/>
<path class="st1" d="M389.3,337.9c73.4-33.4,155.1-11.8,182.5,48.3c0.3,0-265.7,121.4-265.7,121.2
	C278.7,447,315.9,371.2,389.3,337.9z"/>
<path class="st2" d="M329.3,274.4c19.3,0,38-5.6,54.2-15.9c15.9-10.5,28.5-24.9,35.7-42.4c7.4-17.2,9.2-36.2,5.6-54.4
	s-13.1-35.2-26.4-48.3c-13.6-13.1-30.8-22.3-49.8-25.7c-18.7-3.6-38.3-1.8-56.2,5.4c-17.7,7.2-32.9,19.3-43.6,34.7
	c-10.5,15.4-16.4,33.6-16.4,52.4c0,25.2,10.3,48.8,28.5,66.5C278.9,264.4,303.6,274.4,329.3,274.4z"/>
<path class="st2" d="M138.4,476.5c10.6,0,20.8-3.1,29.7-8.6c8.6-5.8,15.5-13.7,19.7-23.3c4-9.5,5.1-19.9,3.1-29.9
	c-2-10-7.1-19.3-14.6-26.4c-7.5-7.3-17.1-12.2-27.3-14.2c-10.4-2-21.1-1.1-30.8,2.9c-9.8,4-18.2,10.6-23.9,19.1
	c-5.8,8.4-9.1,18.4-9.1,28.8c0,13.7,5.8,26.8,15.7,36.6C110.7,471,124.5,476.5,138.4,476.5z"/>
<path class="st3" d="M382.7,296.7H209.6V123.6h173.1V296.7z M232.2,274h127.9V146.1H232.2V274z"/>
<path class="st3" d="M382.7,492H209.6V318.9h173.1V492z M232.2,469.5h127.9V341.6H232.2V469.5z"/>
<g>
	<path class="st4" d="M290.2,165.5l8,8l8-8l101-97.3l65.3,65.3l-172.6,169L174.4,177.1l63.6-63.6L290.2,165.5z"/>
	<path class="st5" d="M299.8,318.4L158.4,177.1L238,97.5l60.2,60.2L407.3,52.6l81.2,81.2L299.8,318.4z M190.3,177.1l109.6,109.6
		l156.5-153.2l-49.5-49.5l-93,89.6l-15.7,15.9L238,129.4L190.3,177.1z"/>
</g>
</svg>
