<?xml version="1.0" encoding="utf-8"?>
<!-- Generator: Adobe Illustrator 26.0.1, SVG Export Plug-In . SVG Version: 6.00 Build 0)  -->
<svg version="1.1" id="Layer_1" xmlns="http://www.w3.org/2000/svg" xmlns:xlink="http://www.w3.org/1999/xlink" x="0px" y="0px"
	 viewBox="0 0 100 100" style="enable-background:new 0 0 100 100;" xml:space="preserve">
<style type="text/css">
	.st0{fill:#ACD2DF;}
	.st1{fill:none;}
	.st2{fill:#004D7E;}
</style>
<g>
	<circle class="st0" cx="50" cy="50" r="50"/>
</g>
<path class="st1" d="M1.9,105.7h24v24h-24C1.9,129.7,1.9,105.7,1.9,105.7z"/>
<path class="st2" d="M75.8,31.2h-13v-6.5l-6.5-6.5h-13l-6.5,6.5v6.5h-13c-3.6,0-6.5,2.9-6.5,6.5V54c0,2.4,1.3,4.5,3.2,5.6v10.6
	c0,3.6,2.9,6.5,6.5,6.5h45.5c3.6,0,6.5-2.9,6.5-6.5V59.6c1.9-1.1,3.2-3.2,3.2-5.6V37.7C82.3,34.1,79.4,31.2,75.8,31.2z M43.3,24.7
	h13v6.5h-13V24.7z M23.8,37.7h52V54H59.5v-9.8H40V54H23.8V37.7z M53,57.2h-6.5v-6.5H53V57.2z M72.5,70.2H27v-9.8h13v3.2h19.5v-3.2
	h13V70.2z"/>
</svg>
