<?xml version="1.0" encoding="utf-8"?>
<!-- Generator: Adobe Illustrator 26.0.1, SVG Export Plug-In . SVG Version: 6.00 Build 0)  -->
<svg version="1.1" id="Layer_1" xmlns="http://www.w3.org/2000/svg" xmlns:xlink="http://www.w3.org/1999/xlink" x="0px" y="0px"
	 viewBox="0 0 600 600" style="enable-background:new 0 0 600 600;" xml:space="preserve">
<style type="text/css">
	.st0{fill:none;stroke:#0332FF;stroke-width:6;stroke-linecap:round;}
	.st1{clip-path:url(#SVGID_00000160187995989077662970000001281561199426462130_);}
	.st2{clip-path:url(#SVGID_00000058567824751709371120000016508323316914183308_);fill:#F6AED5;}
	.st3{clip-path:url(#SVGID_00000004540009263871113750000001281414321416202919_);}
	.st4{clip-path:url(#SVGID_00000181075019214324180030000012036330003093503110_);fill:#245B95;}
	.st5{fill:#F2F4FE;}
	.st6{fill:#C5EAFF;}
	.st7{fill:#58B3CD;}
	.st8{fill:#F7C7CB;}
	.st9{fill:#C4FAE5;}
	.st10{fill:#F8C6EA;}
	.st11{fill:#F8F1CC;}
	.st12{fill:#0332FF;}
	.st13{fill:#5FDAC4;}
	.st14{fill:#668AED;}
	.st15{fill:#F0CAFB;}
	.st16{fill:#1AB96D;}
</style>
<path class="st0" d="M-431.7,661.9"/>
<g>
	<g id="Block_5_00000147900137240298182970000015931959610375147695_">
		<g>
			<defs>
				
					<rect id="SVGID_1_" x="37.1" y="185.4" transform="matrix(0.1076 -0.9942 0.9942 0.1076 -144.7746 299.2635)" width="114.4" height="89.8"/>
			</defs>
			<clipPath id="SVGID_00000086656271153076969820000001529607454434310582_">
				<use xlink:href="#SVGID_1_"  style="overflow:visible;"/>
			</clipPath>
			<g style="clip-path:url(#SVGID_00000086656271153076969820000001529607454434310582_);">
				<defs>
					
						<rect id="SVGID_00000059297832022997094320000016699497988483680422_" x="37.1" y="185.4" transform="matrix(0.1076 -0.9942 0.9942 0.1076 -144.7747 299.2633)" width="114.4" height="89.8"/>
				</defs>
				<clipPath id="SVGID_00000023268267583607499520000001865240438699275689_">
					<use xlink:href="#SVGID_00000059297832022997094320000016699497988483680422_"  style="overflow:visible;"/>
				</clipPath>
				<path style="clip-path:url(#SVGID_00000023268267583607499520000001865240438699275689_);fill:#F6AED5;" d="M137.7,247.2
					c-30.9-9.1-47.4-38.7-39.9-68c-0.1,0-40.5-10.4-40.7-10.4c-16.4,63.9,23.2,110.6,70,122.6C127,291.3,137.7,247.1,137.7,247.2"/>
			</g>
		</g>
	</g>
	<g id="Block_7_00000127727783838090001410000013262655189088911792_">
		<g>
			<defs>
				
					<rect id="SVGID_00000065786623466952103100000004351988911866069430_" x="447.4" y="75.3" transform="matrix(0.2852 -0.9585 0.9585 0.2852 231.3014 548.8032)" width="72.5" height="87.9"/>
			</defs>
			<clipPath id="SVGID_00000080907801396398219000000000485679262710895758_">
				<use xlink:href="#SVGID_00000065786623466952103100000004351988911866069430_"  style="overflow:visible;"/>
			</clipPath>
			<g style="clip-path:url(#SVGID_00000080907801396398219000000000485679262710895758_);">
				<defs>
					
						<rect id="SVGID_00000068659377769101100910000010561017287162494635_" x="447.4" y="75.3" transform="matrix(0.2852 -0.9585 0.9585 0.2852 231.3014 548.8032)" width="72.5" height="87.9"/>
				</defs>
				<clipPath id="SVGID_00000159472333819528540440000000868507154636121261_">
					<use xlink:href="#SVGID_00000068659377769101100910000010561017287162494635_"  style="overflow:visible;"/>
				</clipPath>
				<path style="clip-path:url(#SVGID_00000159472333819528540440000000868507154636121261_);fill:#245B95;" d="M535.9,97.6
					c-41.1-17.2-87-1.2-102.4,35.7l74.5,31.1L535.9,97.6z"/>
			</g>
		</g>
	</g>
	<g>
		<path class="st5" d="M199.1,71.8c0,23.8-19.7,43.3-44.3,43.3s-44.3-19.5-44.3-43.3s19.7-43.3,44.3-43.3S199.1,48,199.1,71.8z"/>
		<path class="st6" d="M154.8,121.6c-28,0-50.9-22.4-50.9-49.9s22.8-49.9,50.9-49.9c28,0,50.9,22.4,50.9,49.9
			S182.8,121.6,154.8,121.6z M154.8,35C134,35,117,51.5,117,71.8c0,20.3,16.9,36.8,37.8,36.8s37.8-16.5,37.8-36.8
			C192.6,51.5,175.6,35,154.8,35z"/>
	</g>
	<rect x="169.1" y="55.5" class="st5" width="304.7" height="406.2"/>
	<path class="st7" d="M471.3,121.5c-4.7,0-8.4-3.8-8.4-8.4V59.8c0-4.7,3.8-8.4,8.4-8.4s8.4,3.8,8.4,8.4v53.2
		C479.7,117.7,476,121.5,471.3,121.5z"/>
	<path class="st8" d="M471.3,474.5H328.1c-4.7,0-8.4-3.8-8.4-8.4s3.8-8.4,8.4-8.4h134.8V334.6c0-4.7,3.8-8.4,8.4-8.4
		s8.4,3.8,8.4,8.4v131.5C479.7,470.7,476,474.5,471.3,474.5z"/>
	<path class="st9" d="M471.3,343c-4.7,0-8.4-3.8-8.4-8.4V113.1c0-4.7,3.8-8.4,8.4-8.4s8.4,3.8,8.4,8.4v221.5
		C479.7,339.2,476,343,471.3,343z"/>
	<path class="st7" d="M471.3,68.3H170c-4.7,0-8.4-3.8-8.4-8.4s3.8-8.4,8.4-8.4h301.3c4.7,0,8.4,3.8,8.4,8.4S476,68.3,471.3,68.3z"/>
	<path class="st10" d="M170,168.2c-4.7,0-8.4-3.8-8.4-8.4V59.8c0-4.7,3.8-8.4,8.4-8.4s8.4,3.8,8.4,8.4v99.9
		C178.4,164.4,174.7,168.2,170,168.2z"/>
	<path class="st9" d="M341.1,563.8c4.3,0,8.6-1.2,12.2-3.6c3.6-2.3,6.4-5.6,8-9.5c1.7-3.9,2.1-8.1,1.2-12.2c-0.8-4.1-2.9-7.9-6-10.8
		c-3.1-3-6.9-5-11.2-5.8c-4.2-0.8-8.6-0.4-12.6,1.2c-4,1.6-7.4,4.3-9.8,7.8c-2.4,3.5-3.7,7.6-3.7,11.8c0,5.6,2.3,11,6.4,15
		C329.8,561.6,335.4,563.8,341.1,563.8z"/>
	<rect x="111" y="110.3" class="st5" width="304.7" height="406.2"/>
	<path class="st11" d="M413.3,217.4c-4.7,0-8.4-3.8-8.4-8.4v-94.4c0-4.7,3.8-8.4,8.4-8.4c4.7,0,8.4,3.8,8.4,8.4V209
		C421.7,213.7,417.9,217.4,413.3,217.4z"/>
	<path class="st12" d="M112,422.2c-4.7,0-8.4-3.8-8.4-8.4V214.5c0-4.7,3.8-8.4,8.4-8.4s8.4,3.8,8.4,8.4v199.2
		C120.4,418.4,116.6,422.2,112,422.2z"/>
	<path class="st13" d="M270.1,529.2H112c-4.7,0-8.4-3.8-8.4-8.4V413.8c0-4.7,3.8-8.4,8.4-8.4s8.4,3.8,8.4,8.4v98.7h149.7
		c4.7,0,8.4,3.8,8.4,8.4S274.7,529.2,270.1,529.2z"/>
	<path class="st8" d="M413.3,529.2H270.1c-4.7,0-8.4-3.8-8.4-8.4s3.8-8.4,8.4-8.4h134.8V209c0-4.7,3.8-8.4,8.4-8.4
		c4.7,0,8.4,3.8,8.4,8.4v311.8C421.7,525.5,417.9,529.2,413.3,529.2z"/>
	<path class="st14" d="M112,223c-4.7,0-8.4-3.8-8.4-8.4v-99.9c0-4.7,3.8-8.4,8.4-8.4h301.3c4.7,0,8.4,3.8,8.4,8.4
		c0,4.7-3.8,8.4-8.4,8.4H120.4v91.5C120.4,219.2,116.6,223,112,223z"/>
	<g>
		<path class="st14" d="M201.6,316.2h-46.9c-4.7,0-8.4-3.8-8.4-8.4s3.8-8.4,8.4-8.4h46.9c4.7,0,8.4,3.8,8.4,8.4
			S206.2,316.2,201.6,316.2z"/>
		<path class="st14" d="M286.8,316.2h-46.9c-4.7,0-8.4-3.8-8.4-8.4s3.8-8.4,8.4-8.4h46.9c4.7,0,8.4,3.8,8.4,8.4
			S291.4,316.2,286.8,316.2z"/>
		<path class="st14" d="M372,316.2h-46.9c-4.7,0-8.4-3.8-8.4-8.4s3.8-8.4,8.4-8.4H372c4.7,0,8.4,3.8,8.4,8.4S376.7,316.2,372,316.2z
			"/>
	</g>
	<g>
		<path class="st14" d="M201.6,270h-46.9c-4.7,0-8.4-3.8-8.4-8.4s3.8-8.4,8.4-8.4h46.9c4.7,0,8.4,3.8,8.4,8.4S206.2,270,201.6,270z"
			/>
		<path class="st14" d="M286.8,270h-46.9c-4.7,0-8.4-3.8-8.4-8.4s3.8-8.4,8.4-8.4h46.9c4.7,0,8.4,3.8,8.4,8.4S291.4,270,286.8,270z"
			/>
		<path class="st14" d="M372,270h-46.9c-4.7,0-8.4-3.8-8.4-8.4s3.8-8.4,8.4-8.4H372c4.7,0,8.4,3.8,8.4,8.4S376.7,270,372,270z"/>
	</g>
	<g>
		<path class="st14" d="M201.6,223.8h-46.9c-4.7,0-8.4-3.8-8.4-8.4s3.8-8.4,8.4-8.4h46.9c4.7,0,8.4,3.8,8.4,8.4
			S206.2,223.8,201.6,223.8z"/>
		<path class="st14" d="M286.8,223.8h-46.9c-4.7,0-8.4-3.8-8.4-8.4s3.8-8.4,8.4-8.4h46.9c4.7,0,8.4,3.8,8.4,8.4
			S291.4,223.8,286.8,223.8z"/>
		<path class="st14" d="M372,223.8h-46.9c-4.7,0-8.4-3.8-8.4-8.4s3.8-8.4,8.4-8.4H372c4.7,0,8.4,3.8,8.4,8.4S376.7,223.8,372,223.8z
			"/>
	</g>
	<g>
		<path class="st15" d="M191.6,588.5L51.3,371h280.7L191.6,588.5z M115.7,406l75.9,117.7L267.5,406H115.7z"/>
		<polygon class="st16" points="444.9,307.8 331.9,476.2 556.5,476.1 		"/>
	</g>
</g>
</svg>
