<?xml version="1.0" encoding="utf-8"?>
<!-- Generator: Adobe Illustrator 26.0.1, SVG Export Plug-In . SVG Version: 6.00 Build 0)  -->
<svg version="1.1" id="Layer_1" xmlns="http://www.w3.org/2000/svg" xmlns:xlink="http://www.w3.org/1999/xlink" x="0px" y="0px"
	 viewBox="0 0 100 100" style="enable-background:new 0 0 100 100;" xml:space="preserve">
<style type="text/css">
	.st0{fill:#ACD2DF;}
	.st1{fill:none;}
	.st2{fill:#004D7E;}
</style>
<g>
	<circle class="st0" cx="50" cy="50" r="50"/>
</g>
<path class="st1" d="M1.9,105.7h24v24h-24C1.9,129.7,1.9,105.7,1.9,105.7z"/>
<path class="st2" d="M75.3,31.9H39.2c-4,0-7.2,3.3-7.2,7.2v36.1c0,4,3.3,7.2,7.2,7.2h36.1c4,0,7.2-3.2,7.2-7.2v-36
	C82.5,35.2,79.2,31.9,75.3,31.9z M75.3,39.2v7.2H39.2v-7.2H75.3z M53.6,60.8v-7.2h7.2v7.2H53.6z M60.8,68.1v7.2h-7.2v-7.2H60.8z
	 M46.4,60.8h-7.2v-7.2h7.2V60.8z M68.1,53.6h7.2v7.2h-7.2V53.6z M39.2,68.1h7.2v7.2h-7.2V68.1z M68.1,75.3v-7.2h7.2v7.2H68.1z
	 M28.3,68.1h-3.6c-4,0-7.2-3.2-7.2-7.2V24.7c0-4,3.2-7.2,7.2-7.2h36.1c4,0,7.2,3.2,7.2,7.2v3.6h-7.2v-3.6H24.7v36.1h3.6
	C28.3,60.8,28.3,68.1,28.3,68.1z"/>
</svg>
