<?xml version="1.0" encoding="utf-8"?>
<!-- Generator: Adobe Illustrator 25.4.1, SVG Export Plug-In . SVG Version: 6.00 Build 0)  -->
<svg version="1.1" id="Layer_1" xmlns="http://www.w3.org/2000/svg" xmlns:xlink="http://www.w3.org/1999/xlink" x="0px" y="0px"
	 viewBox="0 0 600 600" style="enable-background:new 0 0 600 600;" xml:space="preserve">
<style type="text/css">
	.st0{fill:#F7C7CB;}
	.st1{fill:#ECFACC;}
	.st2{fill:#C4FAE5;}
	.st3{fill:#7EC1D4;}
	.st4{fill:#0332FF;}
	.st5{fill:#2064E8;}
	.st6{fill:#668AED;}
	.st7{fill:#F2F4FE;}
	.st8{fill:#58B3CD;}
</style>
<path class="st0" d="M580,347.7c-26-5.2-41.7-28.2-37.7-52.8c-0.1,0-33.9-5.5-34.1-5.5c-8.7,53.5,27.1,88.9,66.4,95.3
	C574.6,384.7,580.1,347.7,580,347.7z"/>
<path class="st1" d="M136.6,349.2h42.7V384h41.1v-76.6h-83.8L136.6,349.2L136.6,349.2z"/>
<path class="st2" d="M385.4,104.2c4.6,0,9-1.3,12.9-3.8c3.8-2.5,6.8-6,8.5-10.1c1.8-4.1,2.2-8.6,1.3-12.9c-0.9-4.4-3.1-8.4-6.3-11.5
	c-3.2-3.1-7.3-5.3-11.9-6.1c-4.5-0.9-9.1-0.4-13.4,1.3c-4.2,1.7-7.8,4.6-10.4,8.3c-2.5,3.7-3.9,8-3.9,12.5c0,6,2.4,11.6,6.8,15.8
	C373.4,101.8,379.3,104.2,385.4,104.2z"/>
<g>
	<path class="st3" d="M282.7,161.9c-3.1,0-6-1.9-7.2-4.9l-32.8-83.1c-1.3-3.3-0.2-7,2.6-9.1s6.7-2,9.4,0.2l90.2,71.7
		c3.3,2.7,3.9,7.5,1.2,10.9c-2.7,3.3-7.5,3.9-10.9,1.2l-67.6-53.7l22.2,56.2c1.6,4-0.4,8.5-4.4,10
		C284.6,161.7,283.6,161.9,282.7,161.9z"/>
	<path class="st4" d="M224.7,231.7c-3,0-5.8-1.7-7.1-4.7c-1.7-3.9,0.1-8.5,4-10.2c6.5-2.8,160-68.5,212.1-19.1
		c3.1,2.9,3.2,7.8,0.3,10.9c-2.9,3.1-7.8,3.2-10.9,0.3c-37.1-35.2-153.6,4-195.3,22.1C226.8,231.5,225.7,231.7,224.7,231.7z"/>
	<path class="st3" d="M151.1,187.9c-3.6,0-6.8-2.5-7.6-6.2c-0.8-4.2,1.9-8.3,6.1-9.1l189-37.5c4.2-0.8,8.3,1.9,9.1,6.1
		c0.8,4.2-1.9,8.3-6.1,9.1l-189,37.5C152.1,187.9,151.6,187.9,151.1,187.9z"/>
	<path class="st5" d="M41.9,234.5c-0.4,0-0.8,0-1.1-0.1l-26.2-3.9c-3.2-0.5-5.7-2.9-6.4-6s0.7-6.4,3.4-8.1L59,185.8l-44-61.3l12.6-9
		l48.7,67.9c1.2,1.7,1.7,3.9,1.3,6c-0.4,2.1-1.6,3.9-3.4,5.1l-37.1,23.9l4.6,0.7l60.2-12.9c0.8-0.2,1.5-0.2,2.3-0.1l36.9,3.3
		l-1.4,15.4l-35.8-3.2l-60.5,12.9C43,234.5,42.5,234.5,41.9,234.5z"/>
	<path class="st1" d="M151.1,187.9c-1.3,0-2.7-0.3-3.9-1.1L37.6,122.3l-13.6,5c-4,1.5-8.5-0.6-9.9-4.6c-1.5-4,0.6-8.5,4.6-9.9
		l17-6.2c2.2-0.8,4.6-0.6,6.6,0.6l112.8,66.4c3.7,2.2,4.9,6.9,2.7,10.6C156.4,186.6,153.8,187.9,151.1,187.9z"/>
	<path class="st4" d="M110,295.5c-3.1,0-6-1.9-7.2-4.9c-1.4-3.6,0-7.8,3.5-9.6l93-51l-59.5-5.3c-4.3-0.4-7.4-4.1-7-8.4
		c0.4-4.3,4.1-7.4,8.4-7l84.8,7.6c3.4,0.3,6.2,2.8,6.9,6.1s-0.9,6.7-3.8,8.4L169,264.2l254-67c0.1,0,0.2,0,0.3-0.1l60.5-13.8
		c0.1,0,0.3-0.1,0.4-0.1c8.4-1.4,22-8.2,33.9-16.8c13.4-9.8,18.2-17.3,18.6-19.7c-4-5.1-9.7-9.3-16.9-12.5
		c-3.9-1.7-5.7-6.3-3.9-10.2c1.7-3.9,6.3-5.7,10.2-3.9c9.8,4.3,17.6,10.3,23.2,17.6c1.9,2.5,4.6,7.8,1.5,15.6
		c-7,17.8-43.3,41.6-63.8,45.2l-60.2,13.7l-314.8,83C111.3,295.4,110.6,295.5,110,295.5z M537,147.1L537,147.1L537,147.1z"/>
	<path class="st0" d="M522.9,134.9c-1,0-2.1-0.2-3.1-0.7c-27.3-12.1-66.7-5.9-67.1-5.9c-4.2,0.7-8.2-2.2-8.9-6.4s2.2-8.2,6.4-8.9
		c1.8-0.3,44.3-7,75.9,7c3.9,1.7,5.7,6.3,3.9,10.2C528.7,133.1,525.9,134.9,522.9,134.9z"/>
	<path class="st6" d="M340.1,150.5c-3.6,0-6.8-2.5-7.6-6.2c-0.8-4.2,1.9-8.3,6.1-9.1l111.3-22.1c4.2-0.8,8.3,1.9,9.1,6.1
		c0.8,4.2-1.9,8.3-6.1,9.1l-111.3,22.1C341.1,150.4,340.6,150.5,340.1,150.5z"/>
</g>
<g>
	<path class="st7" d="M482.5,362.9V180.1H253.1V487h103.8c23.9,26.7,64.9,46,96.6,46c47.8,0,86.5-43.8,86.5-90.5
		C540,405.8,516,374.5,482.5,362.9z"/>
	<g>
		<path class="st4" d="M392.7,308.1H292.4c-4.3,0-7.7-3.5-7.7-7.7c0-4.3,3.5-7.7,7.7-7.7h100.3c4.3,0,7.7,3.5,7.7,7.7
			C400.5,304.6,397,308.1,392.7,308.1z"/>
		<path class="st4" d="M443.5,261.2H292.4c-4.3,0-7.7-3.5-7.7-7.7c0-4.3,3.5-7.7,7.7-7.7h151.1c4.3,0,7.7,3.5,7.7,7.7
			S447.8,261.2,443.5,261.2z"/>
		<path class="st4" d="M482.5,327.1c-4.3,0-7.7-3.5-7.7-7.7V187.9H258.2v113.7c0,4.3-3.5,7.7-7.7,7.7s-7.7-3.5-7.7-7.7V180.1
			c0-4.3,3.5-7.7,7.7-7.7h232c4.3,0,7.7,3.5,7.7,7.7v139.2C490.3,323.6,486.8,327.1,482.5,327.1z"/>
		<path class="st1" d="M250.5,388.3c-4.3,0-7.7-3.5-7.7-7.7v-79c0-4.3,3.5-7.7,7.7-7.7s7.7,3.5,7.7,7.7v79
			C258.2,384.9,254.8,388.3,250.5,388.3z"/>
		<path class="st8" d="M345.9,494.6h-95.4c-4.3,0-7.7-3.5-7.7-7.7V380.6c0-4.3,3.5-7.7,7.7-7.7s7.7,3.5,7.7,7.7v98.6h87.7
			c4.3,0,7.7,3.5,7.7,7.7S350.2,494.6,345.9,494.6z"/>
		<path class="st0" d="M482.5,363.2c-4.3,0-7.7-3.5-7.7-7.7v-38.7c0-4.3,3.5-7.7,7.7-7.7c4.3,0,7.7,3.5,7.7,7.7v38.7
			C490.3,359.7,486.8,363.2,482.5,363.2z"/>
	</g>
</g>
<g>
	<path class="st0" d="M470.3,515.1c-2.6,0-5.3-0.1-8-0.3c-12.1-0.8-24.3-3.3-36.5-7.6c-44-15.3-79.5-50.7-88.5-88.1
		c-5.1-21.2-1.3-41.4,10.7-57c15.5-20.2,42.9-30.7,75.2-28.5l0,0c39.9,2.6,80.2,23.9,105,55.6c10,12.8,16.7,26.3,20,40.2
		c5.3,22.3,0.9,43.3-12.5,59.2C521.2,505.6,497.7,515.1,470.3,515.1z M415.1,346.3c-24.6,0-45.1,8.5-56.8,23.8
		c-9.7,12.6-12.6,28.5-8.4,46.1c8,33.3,40.2,65,80.2,78.9c11.1,3.8,22.2,6.2,33.1,6.9c26.6,1.7,49.4-6.2,62.6-21.8
		c10.7-12.7,14.2-29.7,9.8-47.9c-2.8-12.1-8.7-23.9-17.6-35.2c-22.3-28.4-59.9-48.3-95.7-50.7C419.9,346.3,417.4,346.3,415.1,346.3z
		"/>
	<g>
		<path class="st4" d="M482,409.9c0.5,0,1.3,0.3,1.5,0.5c0.5,0.5,0.8,0.8,0.8,1.3l1.3,5.2c0,0.5,0,0.8-0.3,1.3
			c-0.3,0.3-0.8,0.5-1.3,0.5l-6.7-0.5c-2.6-0.3-4.6,0.3-5.9,1.5c-1.3,1.3-1.5,2.8-1,5.2L475,445c0,0.5,0,0.8-0.3,1.3
			c-0.3,0.3-0.8,0.5-1.5,0.5l-7.5-0.5c-0.5,0-1-0.3-1.5-0.5c-0.5-0.3-0.8-0.8-0.8-1.3l-8-34.5c-0.3-0.5,0-1,0.3-1.3s0.8-0.5,1.3-0.5
			l7,0.5c0.5,0,1,0.3,1.5,0.5c0.5,0.5,0.8,0.8,1,1.3l0.8,2.8c1-1.5,2.3-2.6,4.1-3.4c1.8-0.8,4.1-1,7-0.8L482,409.9z"/>
		<path class="st4" d="M441.8,394.5c0.5,0,0.8,0.3,1.3,0.5c0.5,0.3,0.8,0.8,0.8,1c0,0.3,0,0.5,0,0.8l-18.3,20.4l30.9,25.8
			c0.3,0.3,0.5,0.5,0.8,1c0,0.5,0,0.8-0.3,1c-0.3,0.3-0.8,0.3-1,0.3l-8.8-0.5c-1,0-1.8-0.3-2.3-0.8s-1-0.8-1.3-0.8l-25.3-20.6
			l4.4,18.8c0,0.5,0,0.8-0.3,1.3c-0.3,0.3-0.8,0.5-1.5,0.5l-7.5-0.5c-0.5,0-1-0.3-1.5-0.5c-0.5-0.3-0.8-0.8-0.8-1.3l-11.3-47.4
			c0-0.5,0-1,0.3-1.3s0.8-0.5,1.3-0.5l7.5,0.5c0.5,0,1.3,0.3,1.8,0.5c0.5,0.3,0.8,0.8,1,1.3l4.1,17l15.2-16.2c0.3-0.3,0.5-0.5,1-0.8
			s1.3-0.5,2.1-0.3L441.8,394.5z"/>
	</g>
	<path class="st0" d="M451.3,540.3c-7.2,0-14.6-0.6-22-2c-20.2-3.6-39.7-12.1-58-25.2c-73-52.4-48.7-102.2-38.3-123.4
		c1-2.1,1.9-3.9,2.6-5.5c0.1-0.2,0.2-0.4,0.3-0.6l6.4-11.6c1.7-3.1,5.7-4.2,8.8-2.5c3.1,1.7,4.2,5.7,2.5,8.8l-6.3,11.3
		c-0.7,1.7-1.7,3.6-2.7,5.8c-10.5,21.4-29.9,61.3,34.2,107.3c16.7,12,34.5,19.7,52.8,23c29.8,5.4,54.3-2.4,67.4-11.5
		c12.7-8.8,22.2-24.7,28.5-35.3c1.2-2,2.3-3.8,3.3-5.4c1.9-3,5.9-3.9,8.9-2s3.9,5.9,2,8.9c-0.9,1.5-2,3.2-3.1,5.2
		c-6.9,11.5-17.2,28.9-32.2,39.3C491.8,534.9,472.1,540.3,451.3,540.3z"/>
</g>
</svg>
