<svg width="479" height="554" viewBox="0 0 479 554" fill="none" xmlns="http://www.w3.org/2000/svg">
<path d="M410.635 135.96C410.813 136.107 410.984 136.246 411.146 136.379C399.057 149.126 378.013 154.066 359.549 139.77C359.653 139.646 359.762 139.517 359.875 139.384C360.917 138.152 362.303 136.514 363.689 134.878C364.571 133.836 365.453 132.796 366.246 131.86C366.7 131.324 367.125 130.823 367.504 130.375C367.646 130.208 367.781 130.048 367.909 129.896C377.687 136.861 390.892 135.959 400.023 127.259C400.24 127.436 400.475 127.629 400.727 127.835C402.075 128.94 403.875 130.416 405.677 131.894L406.33 132.43C407.908 133.724 409.445 134.985 410.635 135.96Z" stroke="#7EC1D4" stroke-width="4.32761"/>
<path d="M166.307 163.849C167.906 165.886 170.853 166.24 172.889 164.641C174.926 163.042 175.28 160.095 173.681 158.058C172.082 156.022 169.135 155.667 167.098 157.267C165.062 158.866 164.708 161.813 166.307 163.849Z" fill="#58B3CD"/>
<path d="M375.799 294.49C377.398 296.526 380.345 296.881 382.382 295.282C384.418 293.683 384.772 290.735 383.173 288.699C381.574 286.663 378.627 286.308 376.591 287.907C374.554 289.506 374.2 292.454 375.799 294.49Z" fill="#F7C7CB"/>
<path d="M291.779 172.349C293.378 174.386 296.326 174.74 298.362 173.141C300.398 171.542 300.753 168.595 299.154 166.558C297.555 164.522 294.607 164.167 292.571 165.767C290.535 167.366 290.18 170.313 291.779 172.349Z" fill="#0332FF"/>
<path d="M454.473 371.286L444.108 403.59L420.478 373.541L454.473 371.286Z" fill="#2064E8"/>
<path d="M268.278 301.392C257.699 287.921 239.219 284.778 227 294.373L246.155 318.765L268.278 301.392Z" fill="#C4FAE5"/>
<path d="M308.172 499.602C322.02 505.055 328.446 519.293 323.807 532.425C323.857 532.437 342.005 538.877 342.089 538.884C352.19 510.292 335.852 487.24 314.813 479.807C314.822 479.823 308.141 499.637 308.172 499.602Z" fill="#1AB96D"/>
<path d="M22.325 130.788L49.0505 129.015L40.9015 154.411L22.325 130.788Z" stroke="#CCC7FF" stroke-width="4.32761"/>
</svg>