<svg width="486" height="645" viewBox="0 0 486 645" fill="none" xmlns="http://www.w3.org/2000/svg">
<path d="M141.682 356.518C153.417 362.592 158.893 375.315 153.913 384.937C153.934 384.951 111.408 362.972 111.416 362.941C116.396 353.319 129.946 350.443 141.682 356.518Z" fill="#58B3CD"/>
<path d="M264.086 90.4727L278.705 109.088L264.758 153.223L249.957 134.375L264.086 90.4727Z" fill="#C5EAFF"/>
<path d="M55.7671 170.298C45.5851 178.294 30.8492 176.521 22.8535 166.339C14.8578 156.157 16.6302 141.422 26.8122 133.426C36.9942 125.43 51.7301 127.202 59.7258 137.385C67.7215 147.567 65.9492 162.302 55.7671 170.298Z" stroke="#1AB96D" stroke-width="4.32761"/>
<path d="M12.3062 334.342C13.9053 336.378 16.8525 336.732 18.8889 335.133C20.9253 333.534 21.2798 330.587 19.6807 328.551C18.0815 326.514 15.1343 326.16 13.0979 327.759C11.0615 329.358 10.707 332.305 12.3062 334.342Z" fill="#58B3CD"/>
<path d="M190.244 262.662C191.843 264.698 194.79 265.053 196.826 263.454C198.863 261.854 199.217 258.907 197.618 256.871C196.019 254.834 193.072 254.48 191.035 256.079C188.999 257.678 188.645 260.625 190.244 262.662Z" fill="#1AB96D"/>
<path d="M41.7984 518.986C43.3975 521.022 46.3447 521.377 48.3811 519.778C50.4175 518.179 50.772 515.231 49.1728 513.195C47.5737 511.159 44.6265 510.804 42.5901 512.403C40.5537 514.002 40.1992 516.95 41.7984 518.986Z" fill="#F7C7CB"/>
<path d="M137.778 82.8454C139.377 84.8818 142.325 85.2363 144.361 83.6372C146.397 82.038 146.752 79.0908 145.153 77.0544C143.554 75.018 140.606 74.6635 138.57 76.2627C136.534 77.8618 136.179 80.809 137.778 82.8454Z" fill="#0332FF"/>
<path d="M393.632 430.245C395.042 432.04 396.935 433.39 399.074 434.124C401.212 434.858 403.499 434.943 405.645 434.368C407.791 433.793 409.7 432.585 411.13 430.895C412.561 429.205 413.449 427.111 413.682 424.876C413.915 422.641 413.482 420.366 412.439 418.339C411.395 416.312 409.788 414.624 407.82 413.488C405.852 412.352 403.612 411.819 401.383 411.958C399.154 412.096 397.036 412.899 395.297 414.264C392.971 416.1 391.491 418.812 391.179 421.806C390.867 424.801 391.749 427.835 393.632 430.245Z" fill="#C4FAE5"/>
</svg>