<?xml version="1.0" encoding="utf-8"?>
<!-- Generator: Adobe Illustrator 26.0.1, SVG Export Plug-In . SVG Version: 6.00 Build 0)  -->
<svg version="1.1" id="Layer_1" xmlns="http://www.w3.org/2000/svg" xmlns:xlink="http://www.w3.org/1999/xlink" x="0px" y="0px"
	 viewBox="0 0 100 100" style="enable-background:new 0 0 100 100;" xml:space="preserve">
<style type="text/css">
	.st0{fill:#ACD2DF;}
	.st1{fill:none;}
	.st2{fill:#004D7E;}
</style>
<g>
	<circle class="st0" cx="50" cy="50" r="50"/>
</g>
<path class="st1" d="M1.9,105.7h24v24h-24C1.9,129.7,1.9,105.7,1.9,105.7z"/>
<path class="st2" d="M72.3,56.4v12.7h-6.4V56.4H72.3 M34.1,56.4v12.7h-3.2c-1.8,0-3.2-1.4-3.2-3.2v-9.5H34.1 M50,15
	c-15.8,0-28.6,12.8-28.6,28.6v22.3c0,5.3,4.3,9.5,9.5,9.5h9.5V50H27.7v-6.4c0-12.3,10-22.3,22.3-22.3s22.3,10,22.3,22.3V50H59.5
	v25.5h12.7v3.2H50V85h19.1c5.3,0,9.5-4.3,9.5-9.5V43.6C78.6,27.8,65.8,15,50,15z"/>
</svg>
