<svg viewBox="0 0 46 46" fill="none" xmlns="http://www.w3.org/2000/svg">
<path d="M32.9995 0C27.4028 0 22.4497 3.562 20.6733 8.86331C20.4975 9.38721 20.7798 9.95411 21.3042 10.1294C21.6763 10.2539 22.062 10.1401 22.3218 9.88181L36.1099 23.6826C35.8511 23.9414 35.7368 24.3267 35.8599 24.6973C35.9985 25.1172 36.3891 25.3833 36.8091 25.3833C36.9136 25.3833 37.019 25.3667 37.1235 25.332C42.4321 23.5728 45.9995 18.6172 45.9995 13C45.9995 5.83151 40.1675 0 32.9995 0Z" fill="#A67C52"/>
<path d="M29 13C30.6569 13 32 11.6569 32 10C32 8.34315 30.6569 7 29 7C27.3431 7 26 8.34315 26 10C26 11.6569 27.3431 13 29 13Z" fill="#87613E"/>
<path d="M38 14C39.1046 14 40 13.1046 40 12C40 10.8954 39.1046 10 38 10C36.8954 10 36 10.8954 36 12C36 13.1046 36.8954 14 38 14Z" fill="#87613E"/>
<path d="M19 8C8.52338 8 0 16.5234 0 27C0 37.4766 8.52338 46 19 46C29.4766 46 38 37.4766 38 27C38 16.5234 29.4766 8 19 8Z" fill="#C19F85"/>
<path d="M14 22C15.6569 22 17 20.6569 17 19C17 17.3431 15.6569 16 14 16C12.3431 16 11 17.3431 11 19C11 20.6569 12.3431 22 14 22Z" fill="#87613E"/>
<path d="M25 24C26.1046 24 27 23.1046 27 22C27 20.8954 26.1046 20 25 20C23.8954 20 23 20.8954 23 22C23 23.1046 23.8954 24 25 24Z" fill="#DDC2B6"/>
<path d="M17 37C18.1046 37 19 36.1046 19 35C19 33.8954 18.1046 33 17 33C15.8954 33 15 33.8954 15 35C15 36.1046 15.8954 37 17 37Z" fill="#DDC2B6"/>
<path d="M9 30C10.1046 30 11 29.1046 11 28C11 26.8954 10.1046 26 9 26C7.89543 26 7 26.8954 7 28C7 29.1046 7.89543 30 9 30Z" fill="#87613E"/>
<path d="M27 35C28.6569 35 30 33.6569 30 32C30 30.3431 28.6569 29 27 29C25.3431 29 24 30.3431 24 32C24 33.6569 25.3431 35 27 35Z" fill="#87613E"/>
</svg>
